# xmcd CD database file
#
# Track frame offsets:
#	150
#	17923
#	35896
#	50898
#	68522
#	84935
#	99147
#	113104
#	126978
#	144820
#	163335
#	177617
#	195116
#
# Disc length: 2797 seconds
#
# Revision: 0
# Processed by: cddbd v1.5PL3 Copyright (c) Steve Scherf et al.
# Submitted via: CDex 1.51
#
DISCID=ad0aeb0d
DTITLE=Vicky Layne - Be True
DYEAR=2004
DGENRE=Country
TTITLE0=Surrender to My Heart
TTITLE1=A Little Bit of Faith
TTITLE2=MamaHe'll Do
TTITLE3=Be True
TTITLE4=Tes Apparences
TTITLE5=Easy For You
TTITLE6=Written On My Heart
TTITLE7=Tout s'Eteint Deja
TTITLE8=I'D Lie If I Could
TTITLE9=Far Side Of A Dream
TTITLE10=Driving Wheel
TTITLE11=Cap Enragé
TTITLE12=Sur Ma Fin
EXTD=YEAR: 2004
EXTT0=
EXTT1=
EXTT2=
EXTT3=
EXTT4=
EXTT5=
EXTT6=
EXTT7=
EXTT8=
EXTT9=
EXTT10=
EXTT11=
EXTT12=
PLAYORDER=
